<svg id="visual" viewBox="0 0 900 900" width="900" height="900" xmlns="http://www.w3.org/2000/svg" xmlns:xlink="http://www.w3.org/1999/xlink" version="1.1"><rect x="0" y="0" width="900" height="900" fill="#001220"></rect><defs><linearGradient id="grad1_0" x1="0%" y1="100%" x2="100%" y2="0%"><stop offset="30%" stop-color="#ff006c" stop-opacity="1"></stop><stop offset="70%" stop-color="#ff006c" stop-opacity="1"></stop></linearGradient></defs><defs><linearGradient id="grad1_1" x1="0%" y1="100%" x2="100%" y2="0%"><stop offset="30%" stop-color="#ff006c" stop-opacity="1"></stop><stop offset="70%" stop-color="#c41c81" stop-opacity="1"></stop></linearGradient></defs><defs><linearGradient id="grad1_2" x1="0%" y1="100%" x2="100%" y2="0%"><stop offset="30%" stop-color="#822e81" stop-opacity="1"></stop><stop offset="70%" stop-color="#c41c81" stop-opacity="1"></stop></linearGradient></defs><defs><linearGradient id="grad1_3" x1="0%" y1="100%" x2="100%" y2="0%"><stop offset="30%" stop-color="#822e81" stop-opacity="1"></stop><stop offset="70%" stop-color="#422f6d" stop-opacity="1"></stop></linearGradient></defs><defs><linearGradient id="grad1_4" x1="0%" y1="100%" x2="100%" y2="0%"><stop offset="30%" stop-color="#102449" stop-opacity="1"></stop><stop offset="70%" stop-color="#422f6d" stop-opacity="1"></stop></linearGradient></defs><defs><linearGradient id="grad1_5" x1="0%" y1="100%" x2="100%" y2="0%"><stop offset="30%" stop-color="#102449" stop-opacity="1"></stop><stop offset="70%" stop-color="#001220" stop-opacity="1"></stop></linearGradient></defs><defs><linearGradient id="grad2_0" x1="0%" y1="100%" x2="100%" y2="0%"><stop offset="30%" stop-color="#ff006c" stop-opacity="1"></stop><stop offset="70%" stop-color="#ff006c" stop-opacity="1"></stop></linearGradient></defs><defs><linearGradient id="grad2_1" x1="0%" y1="100%" x2="100%" y2="0%"><stop offset="30%" stop-color="#c41c81" stop-opacity="1"></stop><stop offset="70%" stop-color="#ff006c" stop-opacity="1"></stop></linearGradient></defs><defs><linearGradient id="grad2_2" x1="0%" y1="100%" x2="100%" y2="0%"><stop offset="30%" stop-color="#c41c81" stop-opacity="1"></stop><stop offset="70%" stop-color="#822e81" stop-opacity="1"></stop></linearGradient></defs><defs><linearGradient id="grad2_3" x1="0%" y1="100%" x2="100%" y2="0%"><stop offset="30%" stop-color="#422f6d" stop-opacity="1"></stop><stop offset="70%" stop-color="#822e81" stop-opacity="1"></stop></linearGradient></defs><defs><linearGradient id="grad2_4" x1="0%" y1="100%" x2="100%" y2="0%"><stop offset="30%" stop-color="#422f6d" stop-opacity="1"></stop><stop offset="70%" stop-color="#102449" stop-opacity="1"></stop></linearGradient></defs><defs><linearGradient id="grad2_5" x1="0%" y1="100%" x2="100%" y2="0%"><stop offset="30%" stop-color="#001220" stop-opacity="1"></stop><stop offset="70%" stop-color="#102449" stop-opacity="1"></stop></linearGradient></defs><g transform="translate(900, 900)"><path d="M-636.4 0C-582.9 -27.2 -529.5 -54.5 -533.8 -94.1C-538.1 -133.8 -600.1 -185.8 -592.9 -215.8C-585.8 -245.8 -509.3 -253.8 -471.1 -272C-432.9 -290.2 -433 -318.6 -434.3 -364.5C-435.7 -410.3 -438.2 -473.7 -405.6 -483.4C-373 -493.1 -305.2 -449.2 -273 -472.8C-240.8 -496.5 -244.1 -587.7 -217.7 -598C-191.2 -608.4 -134.8 -537.9 -93.6 -530.8C-52.3 -523.7 -26.2 -580.1 0 -636.4L0 0Z" fill="#031c34"></path><path d="M-530.3 0C-485.8 -22.7 -441.2 -45.4 -444.8 -78.4C-448.4 -111.5 -500.1 -154.8 -494.1 -179.8C-488.1 -204.9 -424.4 -211.5 -392.6 -226.7C-360.8 -241.8 -360.9 -265.5 -362 -303.7C-363.1 -341.9 -365.2 -394.7 -338 -402.8C-310.8 -410.9 -254.3 -374.3 -227.5 -394C-200.7 -413.7 -203.5 -489.7 -181.4 -498.3C-159.3 -507 -112.4 -448.2 -78 -442.3C-43.6 -436.4 -21.8 -483.4 0 -530.3L0 0Z" fill="#272b5c"></path><path d="M-424.3 0C-388.6 -18.2 -353 -36.3 -355.8 -62.7C-358.7 -89.2 -400.1 -123.9 -395.3 -143.9C-390.5 -163.9 -339.5 -169.2 -314.1 -181.3C-288.6 -193.5 -288.7 -212.4 -289.6 -243C-290.4 -273.6 -292.1 -315.8 -270.4 -322.2C-248.7 -328.7 -203.5 -299.5 -182 -315.2C-160.5 -331 -162.8 -391.8 -145.1 -398.7C-127.4 -405.6 -89.9 -358.6 -62.4 -353.9C-34.9 -349.2 -17.4 -386.7 0 -424.3L0 0Z" fill="#613179"></path><path d="M-318.2 0C-291.5 -13.6 -264.7 -27.2 -266.9 -47.1C-269 -66.9 -300.1 -92.9 -296.5 -107.9C-292.9 -122.9 -254.6 -126.9 -235.6 -136C-216.5 -145.1 -216.5 -159.3 -217.2 -182.2C-217.8 -205.2 -219.1 -236.8 -202.8 -241.7C-186.5 -246.5 -152.6 -224.6 -136.5 -236.4C-120.4 -248.2 -122.1 -293.8 -108.8 -299C-95.6 -304.2 -67.4 -268.9 -46.8 -265.4C-26.2 -261.9 -13.1 -290 0 -318.2L0 0Z" fill="#a32884"></path><path d="M-212.1 0C-194.3 -9.1 -176.5 -18.2 -177.9 -31.4C-179.4 -44.6 -200 -61.9 -197.6 -71.9C-195.3 -81.9 -169.8 -84.6 -157 -90.7C-144.3 -96.7 -144.3 -106.2 -144.8 -121.5C-145.2 -136.8 -146.1 -157.9 -135.2 -161.1C-124.3 -164.4 -101.7 -149.7 -91 -157.6C-80.3 -165.5 -81.4 -195.9 -72.6 -199.3C-63.7 -202.8 -44.9 -179.3 -31.2 -176.9C-17.4 -174.6 -8.7 -193.4 0 -212.1L0 0Z" fill="#e30a79"></path><path d="M-106.1 0C-97.2 -4.5 -88.2 -9.1 -89 -15.7C-89.7 -22.3 -100 -31 -98.8 -36C-97.6 -41 -84.9 -42.3 -78.5 -45.3C-72.2 -48.4 -72.2 -53.1 -72.4 -60.7C-72.6 -68.4 -73 -78.9 -67.6 -80.6C-62.2 -82.2 -50.9 -74.9 -45.5 -78.8C-40.1 -82.7 -40.7 -97.9 -36.3 -99.7C-31.9 -101.4 -22.5 -89.6 -15.6 -88.5C-8.7 -87.3 -4.4 -96.7 0 -106.1L0 0Z" fill="#ff006c"></path></g><g transform="translate(0, 0)"><path d="M636.4 0C594.7 32.9 552.9 65.7 520 91.7C487 117.7 462.9 136.8 460.4 167.6C458 198.4 477.3 241 472 272.5C466.6 304 436.6 324.4 404.5 339.4C372.3 354.3 338 363.8 307.9 366.9C277.8 370.1 252 366.8 243.5 421.8C235 476.7 243.9 589.8 217.7 598C191.4 606.2 130 509.4 87.9 498.3C45.7 487.2 22.9 561.8 0 636.4L0 0Z" fill="#031c34"></path><path d="M530.3 0C495.6 27.4 460.8 54.8 433.3 76.4C405.9 98.1 385.7 114 383.7 139.7C381.7 165.4 397.8 200.8 393.3 227.1C388.9 253.3 363.9 270.4 337.1 282.8C310.3 295.3 281.6 303.2 256.6 305.8C231.5 308.4 210 305.7 202.9 351.5C195.9 397.3 203.3 491.5 181.4 498.3C159.5 505.2 108.3 424.5 73.2 415.3C38.1 406 19.1 468.2 0 530.3L0 0Z" fill="#272b5c"></path><path d="M424.3 0C396.4 21.9 368.6 43.8 346.7 61.1C324.7 78.4 308.6 91.2 307 111.7C305.3 132.3 318.2 160.7 314.7 181.7C311.1 202.7 291.1 216.3 269.6 226.3C248.2 236.2 225.3 242.5 205.3 244.6C185.2 246.7 168 244.5 162.3 281.2C156.7 317.8 162.6 393.2 145.1 398.7C127.6 404.1 86.7 339.6 58.6 332.2C30.5 324.8 15.2 374.5 0 424.3L0 0Z" fill="#613179"></path><path d="M318.2 0C297.3 16.4 276.5 32.9 260 45.8C243.5 58.8 231.4 68.4 230.2 83.8C229 99.2 238.7 120.5 236 136.2C233.3 152 218.3 162.2 202.2 169.7C186.2 177.2 169 181.9 153.9 183.5C138.9 185 126 183.4 121.8 210.9C117.5 238.4 122 294.9 108.8 299C95.7 303.1 65 254.7 43.9 249.2C22.9 243.6 11.4 280.9 0 318.2L0 0Z" fill="#a32884"></path><path d="M212.1 0C198.2 11 184.3 21.9 173.3 30.6C162.3 39.2 154.3 45.6 153.5 55.9C152.7 66.1 159.1 80.3 157.3 90.8C155.5 101.3 145.5 108.1 134.8 113.1C124.1 118.1 112.7 121.3 102.6 122.3C92.6 123.4 84 122.3 81.2 140.6C78.3 158.9 81.3 196.6 72.6 199.3C63.8 202.1 43.3 169.8 29.3 166.1C15.2 162.4 7.6 187.3 0 212.1L0 0Z" fill="#e30a79"></path><path d="M106.1 0C99.1 5.5 92.2 11 86.7 15.3C81.2 19.6 77.1 22.8 76.7 27.9C76.3 33.1 79.6 40.2 78.7 45.4C77.8 50.7 72.8 54.1 67.4 56.6C62.1 59.1 56.3 60.6 51.3 61.2C46.3 61.7 42 61.1 40.6 70.3C39.2 79.5 40.7 98.3 36.3 99.7C31.9 101 21.7 84.9 14.6 83.1C7.6 81.2 3.8 93.6 0 106.1L0 0Z" fill="#ff006c"></path></g></svg>